# xmcd
#
# Track frame offsets:
#	183
#	23685
#	41495
#	82243
#	115460
#	137923
#	166000
#	187045
#
# Disc length: 2965 seconds
#
# Revision: 1
# Processed by: cddbd v1.5.1PL0 Copyright (c) Steve Scherf et al.
# Submitted via: audiograbber 1.83.01
#
DISCID=680b9308
DTITLE=Rod Stewart - Live in Anaheim 1977
DYEAR=1977
DGENRE=Blues
TTITLE0=you wear it well
TTITLE1=tonight's the night
TTITLE2=sweet little rock and roller
TTITLE3=Maggie Mae
TTITLE4=get back
TTITLE5=Georgie
TTITLE6=sailing
TTITLE7=stay with me
EXTD=
EXTT0=
EXTT1=
EXTT2=
EXTT3=
EXTT4=
EXTT5=
EXTT6=
EXTT7=
PLAYORDER=
